<svg width="20" height="20" viewBox="0 0 20 20" fill="none" xmlns="http://www.w3.org/2000/svg">
<path fill-rule="evenodd" clip-rule="evenodd" d="M9.34957 5.18726C11.8048 5.18726 13.7943 7.17678 13.7943 9.63107C13.7943 10.632 13.4639 11.5549 12.9058 12.2977C12.9286 12.3149 12.9515 12.3358 12.9734 12.3568L14.8781 14.2615C15.1258 14.5092 15.1258 14.912 14.8781 15.1596C14.6305 15.4073 14.2286 15.4073 13.98 15.1596L12.0753 13.2549L12.0172 13.1873C11.2743 13.7454 10.3505 14.0758 9.35052 14.0758C6.89529 14.0758 4.90576 12.0854 4.90576 9.63107C4.90576 7.17678 6.89529 5.18726 9.34957 5.18726ZM9.34957 6.45678C7.59719 6.45678 6.17529 7.87773 6.17529 9.63107C6.17529 11.3844 7.59624 12.8063 9.34957 12.8063C11.1029 12.8063 12.5248 11.3844 12.5248 9.63107C12.5248 7.87868 11.1029 6.45678 9.34957 6.45678Z" fill="#8A2BFF"/>
</svg>
