<svg width="24" height="24" viewBox="0 0 24 24" fill="none" xmlns="http://www.w3.org/2000/svg">
<path d="M20.7997 18.7201L16.9597 14.9601C17.5463 14.1601 17.9597 13.2801 18.1997 12.3201C18.4397 11.3601 18.493 10.3867 18.3597 9.40008C18.2263 8.41341 17.9063 7.49341 17.3997 6.64008C16.893 5.78675 16.253 5.05341 15.4797 4.44008C14.7063 3.82675 13.8397 3.37341 12.8797 3.08008C11.9197 2.78675 10.9463 2.69341 9.95967 2.80008C8.973 2.90675 8.03967 3.18674 7.15967 3.64008C6.27967 4.09341 5.50634 4.69341 4.83967 5.44008C4.173 6.18674 3.67967 7.02674 3.35967 7.96008C3.03967 8.89341 2.90634 9.85341 2.95967 10.8401C3.013 11.8267 3.23967 12.7734 3.63967 13.6801C4.03967 14.5867 4.59967 15.3867 5.31967 16.0801C6.03967 16.7734 6.853 17.3067 7.75967 17.6801C8.66634 18.0534 9.62634 18.2401 10.6397 18.2401C11.653 18.2401 12.613 18.0667 13.5197 17.7201C14.4263 17.3734 15.253 16.8534 15.9997 16.1601L19.6797 19.8401C19.733 19.8934 19.813 19.9467 19.9197 20.0001C20.0263 20.0534 20.133 20.0801 20.2397 20.0801C20.3463 20.0801 20.4397 20.0534 20.5197 20.0001C20.5997 19.9467 20.6797 19.8934 20.7597 19.8401C20.8397 19.7867 20.9063 19.7067 20.9597 19.6001C21.013 19.4934 21.0397 19.3867 21.0397 19.2801C21.0397 19.1734 21.013 19.0667 20.9597 18.9601C20.9063 18.8534 20.853 18.7734 20.7997 18.7201ZM10.6397 16.8001C9.413 16.8001 8.27967 16.4534 7.23967 15.7601C6.19967 15.0667 5.453 14.1467 4.99967 13.0001C4.54634 11.8534 4.43967 10.6667 4.67967 9.44008C4.91967 8.21341 5.47967 7.16008 6.35967 6.28008C7.23967 5.40008 8.27967 4.84008 9.47967 4.60008C10.6797 4.36008 11.853 4.48008 12.9997 4.96008C14.1463 5.44008 15.0663 6.20008 15.7597 7.24008C16.453 8.28008 16.7997 9.41341 16.7997 10.6401C16.7997 11.4401 16.653 12.2267 16.3597 13.0001C16.0663 13.7734 15.6263 14.4401 15.0397 15.0001C14.453 15.5601 13.7863 16.0001 13.0397 16.3201C12.293 16.6401 11.493 16.8001 10.6397 16.8001Z" fill="black"/>
</svg>
