<svg width="17" height="16" viewBox="0 0 17 16" fill="none" xmlns="http://www.w3.org/2000/svg">
<path d="M13.4835 4.31984C13.5902 4.42651 13.6435 4.54207 13.6435 4.66651C13.6435 4.79095 13.5902 4.90651 13.4835 5.01318L6.81688 11.6798C6.71021 11.7865 6.59465 11.8398 6.47021 11.8398C6.34576 11.8398 6.23021 11.7865 6.12354 11.6798L3.45688 9.01318C3.35021 8.90651 3.29688 8.79095 3.29688 8.66651C3.29688 8.54207 3.35021 8.42651 3.45688 8.31984C3.56354 8.21318 3.6791 8.15984 3.80354 8.15984C3.92799 8.15984 4.04354 8.21318 4.15021 8.31984L6.49688 10.6132L12.7902 4.31984C12.8969 4.21318 13.0124 4.15984 13.1369 4.15984C13.2613 4.15984 13.3769 4.21318 13.4835 4.31984Z" fill="#FF501B"/>
</svg>
