<svg width="14" height="12" viewBox="0 0 14 12" fill="none" xmlns="http://www.w3.org/2000/svg">
<mask id="mask0_2462_827" style="mask-type:luminance" maskUnits="userSpaceOnUse" x="0" y="0" width="14" height="12">
<path fill-rule="evenodd" clip-rule="evenodd" d="M0.333008 0.666992H13.6663V12.0003H0.333008V0.666992Z" fill="white"/>
</mask>
<g mask="url(#mask0_2462_827)">
<path fill-rule="evenodd" clip-rule="evenodd" d="M10.897 9.60633C10.9458 9.60734 10.9944 9.59841 11.0396 9.58007C11.0849 9.56173 11.126 9.53438 11.1603 9.49966C11.1954 9.46554 11.2229 9.42452 11.2413 9.37919C11.2597 9.33386 11.2684 9.28521 11.267 9.23633V7.53366C11.2677 7.48614 11.2583 7.43901 11.2393 7.39543C11.2204 7.35185 11.1923 7.31283 11.157 7.28099C11.0887 7.21313 10.9963 7.17504 10.9 7.17504C10.8037 7.17504 10.7113 7.21313 10.643 7.28099C10.6094 7.31373 10.5828 7.35295 10.5648 7.39626C10.5468 7.43958 10.5378 7.48609 10.5383 7.53299V8.87166H9.56634C9.51826 8.87093 9.47055 8.88022 9.42624 8.89893C9.38194 8.91763 9.34202 8.94536 9.30901 8.98033C9.27465 9.01328 9.24745 9.05296 9.22909 9.09689C9.21074 9.14082 9.20164 9.18806 9.20234 9.23566C9.20234 9.33744 9.2379 9.42455 9.30901 9.49699C9.34202 9.53197 9.38194 9.55969 9.42624 9.57839C9.47055 9.5971 9.51826 9.60639 9.56634 9.60566L10.897 9.60633ZM8.18834 5.19233C8.15145 5.15722 8.13301 5.09055 8.13301 4.99233V4.66366C8.13301 4.56588 8.15145 4.49833 8.18834 4.46099C8.22479 4.4241 8.29123 4.40544 8.38767 4.40499H8.70501C8.80501 4.40588 8.87456 4.42455 8.91368 4.46099C8.9519 4.49833 8.97101 4.56588 8.97101 4.66366V4.99299C8.97101 5.09033 8.95167 5.15655 8.91301 5.19166C8.87479 5.22722 8.80567 5.24499 8.70568 5.24499H8.38767C8.29079 5.24499 8.22412 5.22722 8.18767 5.19166M9.78901 11.777C9.11381 11.4783 8.57753 10.9339 8.28901 10.2543C8.14115 9.90612 8.06627 9.53129 8.06901 9.15299C8.06901 8.76188 8.14234 8.39522 8.28901 8.05299C8.43479 7.71077 8.63701 7.40922 8.89567 7.14833C9.15345 6.88833 9.45123 6.68299 9.78901 6.53233C10.13 6.38026 10.4997 6.30341 10.873 6.30699C11.2548 6.30699 11.6152 6.38144 11.9543 6.53033C12.2894 6.67544 12.5929 6.8847 12.8477 7.14633C13.1037 7.4081 13.3039 7.71033 13.4483 8.05299C13.5945 8.40142 13.6687 8.77582 13.6663 9.15366C13.6663 9.54077 13.593 9.90566 13.4463 10.2483C13.1581 10.9291 12.6219 11.4748 11.9463 11.775C11.6087 11.9256 11.2427 12.0024 10.873 12.0003C10.4877 12.0003 10.1266 11.9261 9.78967 11.7777M6.38434 8.79299C6.34701 8.7561 6.32834 8.68877 6.32834 8.59099V8.26166C6.32834 8.16388 6.34679 8.09766 6.38367 8.06299C6.42056 8.02744 6.48723 8.00966 6.58367 8.00966H6.90767C7.00768 8.00966 7.0759 8.02744 7.11234 8.06299C7.14879 8.0981 7.16701 8.16433 7.16701 8.26166V8.59099C7.16701 8.68877 7.14879 8.7561 7.11234 8.79299C7.07545 8.82988 7.00701 8.84855 6.90701 8.84899H6.58301C6.48745 8.84899 6.42167 8.83033 6.38434 8.79299ZM6.38367 6.99099C6.34634 6.9541 6.32767 6.88633 6.32767 6.78766V6.46699C6.32767 6.36922 6.34612 6.30255 6.38301 6.26699C6.4199 6.23144 6.48656 6.21366 6.58301 6.21366H6.90701C7.00701 6.21366 7.07523 6.23144 7.11167 6.26699C7.14812 6.30255 7.16634 6.36922 7.16634 6.46699V6.78833C7.16634 6.88699 7.14812 6.95499 7.11167 6.99233C7.07479 7.02922 7.00634 7.04744 6.90634 7.04699H6.58234C6.48679 7.04699 6.42034 7.02855 6.38301 6.99166M6.38301 5.19233C6.34567 5.15722 6.32701 5.09077 6.32701 4.99299V4.66433C6.32701 4.56655 6.34545 4.49899 6.38234 4.46166C6.41923 4.42433 6.4859 4.40566 6.58234 4.40566H6.90634C7.00634 4.40655 7.07456 4.42522 7.11101 4.46166C7.14745 4.49899 7.16567 4.56655 7.16567 4.66433V4.99366C7.16567 5.09099 7.14745 5.15722 7.11101 5.19233C7.07412 5.22788 7.00567 5.24566 6.90567 5.24566H6.58167C6.48612 5.24566 6.42034 5.22788 6.38301 5.19233ZM4.58501 8.79366C4.54812 8.75677 4.52967 8.68944 4.52967 8.59166V8.26233C4.52967 8.16455 4.54812 8.09833 4.58501 8.06366C4.62101 8.0281 4.68767 8.01033 4.78501 8.01033H5.10767C5.20412 8.01033 5.27167 8.0281 5.31034 8.06366C5.34901 8.09877 5.36834 8.16499 5.36834 8.26233V8.59166C5.36834 8.68944 5.34901 8.75677 5.31034 8.79366C5.27167 8.83055 5.20412 8.84922 5.10767 8.84966H4.78434C4.68745 8.84966 4.62101 8.83099 4.58501 8.79366ZM4.58501 6.99166C4.54812 6.95477 4.52967 6.88699 4.52967 6.78833V6.46699C4.52967 6.36922 4.54812 6.30255 4.58501 6.26699C4.62101 6.23144 4.68767 6.21366 4.78501 6.21366H5.10767C5.20412 6.21366 5.27167 6.23144 5.31034 6.26699C5.34901 6.30255 5.36834 6.36922 5.36834 6.46699V6.78833C5.36834 6.88699 5.34901 6.95499 5.31034 6.99233C5.27167 7.02966 5.20412 7.04788 5.10767 7.04699H4.78434C4.68745 7.04699 4.62101 7.02855 4.58501 6.99166ZM4.58501 5.19233C4.54812 5.15722 4.52967 5.09077 4.52967 4.99299V4.66433C4.52967 4.56655 4.54812 4.49899 4.58501 4.46166C4.62101 4.42477 4.68767 4.4061 4.78501 4.40566H5.10767C5.20412 4.40655 5.27167 4.42522 5.31034 4.46166C5.34901 4.49899 5.36834 4.56655 5.36834 4.66433V4.99366C5.36834 5.09099 5.34901 5.15722 5.31034 5.19233C5.27167 5.22788 5.20412 5.24566 5.10767 5.24566H4.78434C4.68745 5.24566 4.62101 5.22788 4.58501 5.19233ZM2.78701 8.79366C2.75056 8.75677 2.73234 8.68944 2.73234 8.59166V8.26233C2.73234 8.16455 2.75056 8.09833 2.78701 8.06366C2.82345 8.0281 2.89012 8.01033 2.98701 8.01033H3.30434C3.40123 8.01033 3.46967 8.0281 3.50967 8.06366C3.55012 8.09877 3.57034 8.16499 3.57034 8.26233V8.59166C3.57034 8.68944 3.55034 8.75677 3.51034 8.79366C3.47034 8.83055 3.40167 8.84922 3.30434 8.84966H2.98634C2.89034 8.84966 2.8239 8.83099 2.78701 8.79366ZM2.78701 6.99166C2.75056 6.95477 2.73234 6.88699 2.73234 6.78833V6.46699C2.73234 6.36922 2.75056 6.30255 2.78701 6.26699C2.82345 6.23144 2.89012 6.21366 2.98701 6.21366H3.30434C3.40123 6.21366 3.46967 6.23144 3.50967 6.26699C3.55012 6.30255 3.57034 6.36922 3.57034 6.46699V6.78833C3.57034 6.88699 3.55034 6.95499 3.51034 6.99233C3.47034 7.02966 3.40167 7.04788 3.30434 7.04699H2.98634C2.89034 7.04699 2.8239 7.02855 2.78701 6.99166ZM0.333674 2.43366C0.333674 1.84699 0.481675 1.40588 0.777675 1.11033C1.07501 0.814771 1.51456 0.666993 2.09634 0.666993H9.60168C10.183 0.666549 10.6226 0.815438 10.9203 1.11366C11.2172 1.41055 11.3657 1.85055 11.3657 2.43366V5.57366C11.2819 5.56228 11.1979 5.55251 11.1137 5.54433C10.9503 5.52889 10.7858 5.52889 10.6223 5.54433C10.5392 5.55188 10.4552 5.56144 10.3703 5.57299V4.04699C10.3703 3.79677 10.3068 3.60899 10.1797 3.48366C10.053 3.35922 9.87168 3.29699 9.63568 3.29699H2.05634C1.82079 3.29699 1.64079 3.35922 1.51634 3.48366C1.39056 3.60899 1.32767 3.79677 1.32767 4.04699V9.21299C1.32767 9.46322 1.39034 9.65099 1.51567 9.77633C1.64101 9.90077 1.82123 9.96322 2.05634 9.96366H7.41634C7.44701 10.1397 7.49523 10.3128 7.56101 10.483C7.62723 10.6532 7.70656 10.8148 7.79901 10.9677H2.09567C1.51345 10.9672 1.0739 10.8194 0.777008 10.5243C0.481008 10.2283 0.333008 9.78744 0.333008 9.20166L0.333674 2.43366Z" fill="#999696"/>
</g>
</svg>
