<svg width="100" height="20" viewBox="0 0 100 20" fill="none" xmlns="http://www.w3.org/2000/svg">
<path d="M90.4378 16.9295C86.8268 16.9295 83.9988 13.8039 83.9988 10.0002C83.9988 6.19658 86.8268 3.06853 90.4378 3.06853C94.0488 3.06853 96.8744 6.19536 96.8744 10.0002C96.8744 13.8051 94.0476 16.9295 90.4378 16.9295ZM90.4378 0.244141C85.1573 0.244141 80.8732 4.61975 80.8732 10.0002C80.8732 15.3807 85.1585 19.7563 90.4378 19.7563C95.7171 19.7563 100 15.3807 100 10.0002C100 4.61975 95.7171 0.244141 90.4378 0.244141ZM69.7744 19.5124H72.872V3.26121H79.4988V0.488043H63.1463V3.26121H69.7744V19.5124ZM43.6963 19.5124H46.7402V5.70634L56.5207 19.5112H59.4841V0.488043H56.439V14.2929L46.6585 0.488043H43.6963V19.5124ZM31.3841 19.7563C36.072 19.7563 39.3049 16.3868 39.3049 11.6844V0.488043H36.2073V11.6039C36.2073 14.8649 34.2402 16.9295 31.3841 16.9295C28.528 16.9295 26.5634 14.8649 26.5634 11.6039V0.488043H23.4634V11.6844C23.4634 16.3868 26.6963 19.7563 31.3829 19.7563M0 19.5124H2.99146V5.67951L8.24268 13.5332H11.1537L16.0829 5.70634V19.5112H19.0744V0.488043H15.9756L9.69512 10.4088L3.15366 0.488043H0V19.5124Z" fill="#383535"/>
</svg>
