<svg width="25" height="24" viewBox="0 0 25 24" fill="none" xmlns="http://www.w3.org/2000/svg">
<path d="M17.3903 5C19.7123 5 21.5303 6.632 21.5303 8.717C21.5303 11.66 18.1163 14.483 12.9123 18.792C12.9123 18.792 12.6943 19 12.5343 19C12.3753 19 12.1383 18.772 12.1383 18.772C6.95427 14.492 3.53027 11.665 3.53027 8.717C3.53027 6.632 5.35027 5 7.67027 5C9.00027 5 10.3123 5.553 11.1783 6.481C11.5203 6.846 12.0123 7.055 12.5293 7.055C13.0483 7.055 13.5403 6.846 13.8823 6.481C14.7503 5.553 16.0623 5 17.3903 5Z" stroke="#B9B6B6" stroke-width="2"/>
</svg>
