<svg width="12" height="12" viewBox="0 0 12 12" fill="none" xmlns="http://www.w3.org/2000/svg">
<path d="M8.58191 6.75886C8.67272 6.51619 8.71879 6.25907 8.71788 5.99997C8.71788 5.42467 8.48934 4.87294 8.08255 4.46614C7.67575 4.05935 7.12402 3.83081 6.54872 3.83081C6.29281 3.83111 6.03902 3.87716 5.79932 3.96678L6.3084 4.49168C6.38579 4.4793 6.46402 4.47295 6.5424 4.4727C6.94917 4.47185 7.33976 4.63199 7.62887 4.91814C7.91798 5.20429 8.08213 5.59321 8.08547 5.99997C8.08521 6.07834 8.07887 6.15657 8.0665 6.23396L8.58191 6.75886Z" fill="#C7D2D6"/>
<path d="M11.4595 5.85149C10.3939 3.88154 8.52517 2.68945 6.4572 2.68945C5.89415 2.69077 5.33489 2.7815 4.80029 2.95823L5.30938 3.47048C5.68435 3.37357 6.06991 3.32365 6.4572 3.32186C8.23743 3.32186 9.85639 4.31474 10.8208 5.98746C10.467 6.60804 9.99803 7.15538 9.439 7.6001L9.88801 8.04911C10.535 7.52716 11.0723 6.88238 11.469 6.15188L11.5512 6.00011L11.4595 5.85149Z" fill="#C7D2D6"/>
<path d="M2.15649 2.13594L3.56676 3.54621C2.67535 4.12015 1.94681 4.91403 1.45135 5.85133L1.36914 5.99995L1.45135 6.15172C2.51696 8.12167 4.38572 9.31376 6.45369 9.31376C7.26085 9.3136 8.05753 9.13091 8.78412 8.77938L10.3651 10.3604L10.9185 9.88609L2.6972 1.66479L2.15649 2.13594ZM5.23947 5.21892L7.34223 7.32168C7.10464 7.46874 6.83113 7.54751 6.55172 7.54935C6.34869 7.54935 6.14767 7.50921 5.96022 7.43123C5.77277 7.35325 5.60259 7.23897 5.45947 7.09497C5.31635 6.95097 5.20312 6.78009 5.12629 6.59216C5.04946 6.40423 5.01056 6.20297 5.01181 5.99995C5.01537 5.72376 5.09407 5.45376 5.23947 5.21892ZM4.78098 4.76043C4.48515 5.17763 4.34649 5.68605 4.38955 6.19567C4.43262 6.7053 4.65463 7.18324 5.01627 7.54488C5.37791 7.90653 5.85585 8.12853 6.36548 8.1716C6.8751 8.21466 7.38352 8.076 7.80072 7.78017L8.30665 8.2861C7.72097 8.53645 7.09064 8.66553 6.45369 8.66554C4.67347 8.66554 3.05451 7.67266 2.09008 5.99995C2.55291 5.18042 3.21948 4.49425 4.02525 4.00786L4.78098 4.76043Z" fill="#C7D2D6"/>
</svg>
