<svg width="80" height="81" viewBox="0 0 80 81" fill="none" xmlns="http://www.w3.org/2000/svg">
<rect width="80" height="81" rx="14" fill="#F4F4F4"/>
<path fill-rule="evenodd" clip-rule="evenodd" d="M32.3 20.25C30.4597 20.25 28.9249 21.1537 27.9154 22.3756C26.8667 23.6912 26.3111 25.2839 26.3321 26.9144C26.3321 28.6259 26.9021 30.2347 27.9154 31.4566C28.9249 32.6786 30.4597 33.5789 32.3 33.5789C34.1365 33.5789 35.6713 32.6786 36.6845 31.4566C37.734 30.1402 38.2896 28.5461 38.2678 26.9144C38.2678 25.2064 37.6941 23.5942 36.6845 22.3756C35.6713 21.1537 34.1365 20.25 32.3 20.25ZM47.7 20.25C45.8635 20.25 44.3287 21.1537 43.3154 22.3756C42.2668 23.6912 41.7112 25.2839 41.7322 26.9144C41.7322 28.6259 42.3059 30.2347 43.3154 31.4566C44.3287 32.6786 45.8635 33.5789 47.7 33.5789C49.5403 33.5789 51.0751 32.6786 52.0884 31.4566C53.1016 30.2347 53.6716 28.6259 53.6716 26.9144C53.6716 25.2064 53.0979 23.5942 52.0884 22.3756C51.0751 21.1537 49.5403 20.25 47.7 20.25ZM58.8236 32.8292C55.0462 32.8292 52.6471 36.1905 52.6471 39.4937C52.6471 42.7968 55.0462 46.1615 58.8236 46.1615C62.601 46.1615 65 42.8002 65 39.4937C65 36.1871 62.601 32.8292 58.8236 32.8292ZM21.1764 32.8292C17.399 32.8292 15 36.1871 15 39.4937C15 42.8002 17.399 46.1615 21.1764 46.1615C24.9538 46.1615 27.3529 42.8002 27.3529 39.4937C27.3529 36.1871 24.9501 32.8327 21.1764 32.8327M40 39.1616C35.6564 39.1616 32.4452 41.301 30.3926 43.9537C28.3698 46.562 27.3529 49.8001 27.3529 52.4323C27.3529 55.5129 29.3682 57.6523 31.8269 58.9358C34.2482 60.1955 37.2843 60.75 40 60.75C42.7194 60.75 45.748 60.1955 48.1694 58.9358C50.6281 57.6523 52.6471 55.5129 52.6471 52.4323C52.6471 49.8001 51.6302 46.562 49.6036 43.9503C47.5548 41.301 44.3436 39.1582 40 39.1582" fill="#72A0DB"/>
</svg>
