<svg width="80" height="81" viewBox="0 0 80 81" fill="none" xmlns="http://www.w3.org/2000/svg">
<rect width="80" height="81" rx="14" fill="#F4F4F4"/>
<path d="M53.25 37.4945C52.2554 37.4945 51.3016 37.0995 50.5984 36.3964C49.8951 35.6932 49.5 34.7395 49.5 33.7451C49.5 32.7507 49.8951 31.797 50.5984 31.0939C51.3016 30.3907 52.2554 29.9957 53.25 29.9957C54.2446 29.9957 55.1984 30.3907 55.9016 31.0939C56.6049 31.797 57 32.7507 57 33.7451C57 34.7395 56.6049 35.6932 55.9016 36.3964C55.1984 37.0995 54.2446 37.4945 53.25 37.4945ZM45.75 27.4961C44.7554 27.4961 43.8016 27.1011 43.0983 26.3979C42.3951 25.6948 42 24.7411 42 23.7467C42 22.7523 42.3951 21.7986 43.0983 21.0954C43.8016 20.3923 44.7554 19.9973 45.75 19.9973C46.7446 19.9973 47.6984 20.3923 48.4017 21.0954C49.1049 21.7986 49.5 22.7523 49.5 23.7467C49.5 24.7411 49.1049 25.6948 48.4017 26.3979C47.6984 27.1011 46.7446 27.4961 45.75 27.4961ZM33.25 27.4961C32.2554 27.4961 31.3016 27.1011 30.5983 26.3979C29.8951 25.6948 29.5 24.7411 29.5 23.7467C29.5 22.7523 29.8951 21.7986 30.5983 21.0954C31.3016 20.3923 32.2554 19.9973 33.25 19.9973C34.2446 19.9973 35.1984 20.3923 35.9017 21.0954C36.6049 21.7986 37 22.7523 37 23.7467C37 24.7411 36.6049 25.6948 35.9017 26.3979C35.1984 27.1011 34.2446 27.4961 33.25 27.4961ZM25.75 37.4945C24.7554 37.4945 23.8016 37.0995 23.0983 36.3964C22.3951 35.6932 22 34.7395 22 33.7451C22 32.7507 22.3951 31.797 23.0983 31.0939C23.8016 30.3907 24.7554 29.9957 25.75 29.9957C26.7446 29.9957 27.6984 30.3907 28.4017 31.0939C29.1049 31.797 29.5 32.7507 29.5 33.7451C29.5 34.7395 29.1049 35.6932 28.4017 36.3964C27.6984 37.0995 26.7446 37.4945 25.75 37.4945ZM39.5 14.998C33.5326 14.998 27.8097 17.3682 23.5901 21.5871C19.3705 25.806 17 31.5281 17 37.4945C17 43.461 19.3705 49.183 23.5901 53.4019C27.8097 57.6209 33.5326 59.991 39.5 59.991C40.4946 59.991 41.4484 59.596 42.1517 58.8928C42.8549 58.1897 43.25 57.236 43.25 56.2416C43.25 55.2668 42.875 54.3919 42.275 53.742C41.7 53.0671 41.325 52.1922 41.325 51.2424C41.325 50.248 41.7201 49.2943 42.4234 48.5911C43.1266 47.888 44.0804 47.493 45.075 47.493H49.5C52.8152 47.493 55.9946 46.1762 58.3388 43.8324C60.683 41.4885 62 38.3096 62 34.9949C62 23.9466 51.925 14.998 39.5 14.998Z" fill="#72A0DB"/>
</svg>
