<svg width="80" height="81" viewBox="0 0 80 81" fill="none" xmlns="http://www.w3.org/2000/svg">
<rect width="80" height="81" rx="14" fill="#F4F4F4"/>
<path d="M21.8938 51.4986C20.3188 49.4739 19.1098 47.2715 18.2668 44.8914C17.4238 42.5112 17.0015 40.0456 17 37.4945C16.9985 34.9434 17.4208 32.4786 18.2668 30.0999C19.1128 27.7213 20.3218 25.5182 21.8938 23.4905C24.0688 25.1777 25.775 27.2496 27.0125 29.7062C28.25 32.1629 28.8688 34.759 28.8688 37.4945C28.8688 40.2301 28.25 42.827 27.0125 45.2851C25.775 47.7432 24.0688 49.8144 21.8938 51.4986ZM39.5 59.991C36.8 59.991 34.2222 59.5411 31.7668 58.6412C29.3113 57.7414 27.0703 56.4291 25.0438 54.7043C27.6313 52.5672 29.6563 50.0086 31.1188 47.0285C32.5813 44.0485 33.3125 40.8705 33.3125 37.4945C33.3125 34.1186 32.5813 30.9413 31.1188 27.9628C29.6563 24.9842 27.6313 22.4249 25.0438 20.2847C27.0688 18.56 29.3098 17.2477 31.7668 16.3478C34.2237 15.448 36.8015 14.998 39.5 14.998C42.1985 14.998 44.777 15.448 47.2355 16.3478C49.694 17.2477 51.9342 18.56 53.9562 20.2847C51.3687 22.4219 49.3438 24.9812 47.8812 27.9628C46.4187 30.9443 45.6875 34.1216 45.6875 37.4945C45.6875 40.8675 46.4187 44.0455 47.8812 47.0285C49.3438 50.0116 51.3687 52.5702 53.9562 54.7043C51.9312 56.4291 49.6902 57.7414 47.2332 58.6412C44.7762 59.5411 42.1985 59.991 39.5 59.991ZM57.1062 51.4986C54.9312 49.8114 53.225 47.7402 51.9875 45.2851C50.75 42.83 50.1312 40.2331 50.1312 37.4945C50.1312 34.756 50.75 32.1591 51.9875 29.704C53.225 27.2489 54.9312 25.1777 57.1062 23.4905C58.6812 25.5152 59.891 27.7183 60.7355 30.0999C61.58 32.4816 62.0015 34.9464 62 37.4945C61.9985 40.0426 61.577 42.5082 60.7355 44.8914C59.894 47.2745 58.6842 49.4769 57.1062 51.4986Z" fill="#72A0DB"/>
</svg>
