<svg width="80" height="81" viewBox="0 0 80 81" fill="none" xmlns="http://www.w3.org/2000/svg">
<rect width="80" height="81" rx="14" fill="#F4F4F4"/>
<path d="M57.8731 15.8148C57.0469 14.9784 55.7108 14.9784 54.8933 15.8148L50.6654 20.0859C50.4544 20.2994 50.2874 20.5575 50.1819 20.8422L48.8283 24.4904L42.0161 31.3953C38.0518 28.7793 33.2877 28.7081 30.5013 31.5377C29.5344 32.5165 28.9191 33.7266 28.6203 35.0613C28.295 36.5384 26.9414 37.793 25.4471 37.8731C23.1969 37.9888 21.1137 38.8252 19.5315 40.418C15.5936 44.4132 16.3319 51.6206 21.1752 56.5234C26.0184 61.4263 33.1383 62.1737 37.0762 58.1874C38.6496 56.5946 39.4846 54.4769 39.5901 52.199C39.6692 50.6863 40.9086 49.3249 42.3677 48.9868C43.6862 48.6843 44.8816 48.0525 45.8485 47.0826C48.6437 44.253 48.5734 39.4392 45.9892 35.4261L52.8101 28.5212L56.414 27.1509C56.6953 27.0442 56.9502 26.8751 57.1611 26.6616L61.3803 22.3905C62.2066 21.5541 62.2066 20.2016 61.3803 19.374L57.8731 15.8148ZM35.283 37.971C36.402 37.971 37.4752 38.421 38.2664 39.222C39.0577 40.0229 39.5022 41.1093 39.5022 42.2421C39.5022 43.3748 39.0577 44.4612 38.2664 45.2622C37.4752 46.0631 36.402 46.5131 35.283 46.5131C34.164 46.5131 33.0909 46.0631 32.2996 45.2622C31.5084 44.4612 31.0639 43.3748 31.0639 42.2421C31.0639 41.1093 31.5084 40.0229 32.2996 39.222C33.0909 38.421 34.164 37.971 35.283 37.971Z" fill="#72A0DB"/>
</svg>
