<svg width="80" height="81" viewBox="0 0 80 81" fill="none" xmlns="http://www.w3.org/2000/svg">
<rect width="80" height="81" rx="14" fill="#F4F4F4"/>
<path d="M21 29.25C21 31.6369 21.8429 33.9261 23.3431 35.614C24.8434 37.3018 26.8783 38.25 29 38.25C31.1217 38.25 33.1566 37.3018 34.6569 35.614C36.1571 33.9261 37 31.6369 37 29.25C37 26.8631 36.1571 24.5739 34.6569 22.886C33.1566 21.1982 31.1217 20.25 29 20.25C26.8783 20.25 24.8434 21.1982 23.3431 22.886C21.8429 24.5739 21 26.8631 21 29.25ZM20 60.75V50.625C20 49.2954 20.2328 47.9788 20.6851 46.7503C21.1374 45.5219 21.8003 44.4057 22.636 43.4655C23.4718 42.5254 24.4639 41.7795 25.5558 41.2707C26.6478 40.7619 27.8181 40.5 29 40.5C30.1819 40.5 31.3522 40.7619 32.4442 41.2707C33.5361 41.7795 34.5282 42.5254 35.364 43.4655C36.1997 44.4057 36.8626 45.5219 37.3149 46.7503C37.7672 47.9788 38 49.2954 38 50.625V60.75H20ZM51 38.25C48.8783 38.25 46.8434 37.3018 45.3431 35.614C43.8429 33.9261 43 31.6369 43 29.25C43 26.8631 43.8429 24.5739 45.3431 22.886C46.8434 21.1982 48.8783 20.25 51 20.25C53.1217 20.25 55.1566 21.1982 56.6569 22.886C58.1571 24.5739 59 26.8631 59 29.25C59 31.6369 58.1571 33.9261 56.6569 35.614C55.1566 37.3018 53.1217 38.25 51 38.25ZM42 60.75V50.625C42 49.2954 42.2328 47.9788 42.6851 46.7503C43.1374 45.5219 43.8003 44.4057 44.636 43.4655C45.4718 42.5254 46.4639 41.7795 47.5558 41.2707C48.6478 40.7619 49.8181 40.5 51 40.5C52.1819 40.5 53.3522 40.7619 54.4442 41.2707C55.5361 41.7795 56.5282 42.5254 57.364 43.4655C58.1997 44.4057 58.8626 45.5219 59.3149 46.7503C59.7672 47.9788 60 49.2954 60 50.625V60.75H42Z" fill="#72A0DB"/>
</svg>
