<svg width="50" height="50" viewBox="0 0 50 50" fill="none" xmlns="http://www.w3.org/2000/svg">
<path d="M6.59821 41.7913C8.97143 41.7913 10.5991 40.9253 12.0536 39.1244L15.1884 35.3315C15.6393 34.7949 16.1589 34.5351 16.6786 34.5351H33.3214C33.8411 34.5351 34.3607 34.794 34.7946 35.3315L37.9286 39.1244C39.4009 40.9253 41.0116 41.7913 43.4018 41.7913C47.35 41.7913 50 39.1592 50 35.1065C50 33.3744 49.5839 31.3833 48.9259 29.1485C47.8696 25.5985 46.017 20.7663 44.233 17.0253C42.7607 13.9074 41.9982 12.4878 38.3268 11.6565C35.0536 10.9119 30.533 10.4092 24.9911 10.4092C19.4491 10.4092 14.9286 10.9119 11.6732 11.6565C8.00089 12.4869 7.23929 13.9074 5.75 17.0253C3.98304 20.7663 2.13036 25.5985 1.07411 29.1485C0.398214 31.3824 0 33.3752 0 35.1074C0 39.1601 2.63214 41.7913 6.59821 41.7913ZM10.9804 22.6199C10.9804 21.7538 11.5 21.2181 12.4179 21.2181H15.5179V18.1869C15.5179 17.3029 16.0375 16.7672 16.9036 16.7672C17.7518 16.7672 18.2545 17.3029 18.2545 18.1869V21.2172H21.1982C22.1679 21.2172 22.7402 21.7538 22.7402 22.6199C22.7402 23.5208 22.1688 24.0753 21.1982 24.0753H18.2545V27.1056C18.2545 27.9895 17.7518 28.5431 16.9036 28.5431C16.0375 28.5431 15.5179 27.9895 15.5179 27.1056V24.0753H12.4179C11.5 24.0753 10.9804 23.5208 10.9804 22.6199ZM33.0964 19.9181C33.0964 18.4985 34.2054 17.4074 35.5902 17.4074C36.9938 17.4074 38.0848 18.4985 38.0848 19.9181C38.0848 21.3217 36.9938 22.3949 35.5902 22.3949C34.2054 22.3949 33.0964 21.3208 33.0964 19.9181ZM28.0045 25.0449C28.0045 23.6252 29.0964 22.5333 30.4991 22.5333C31.9018 22.5333 32.975 23.6244 32.975 25.0449C32.975 26.4476 31.9018 27.5386 30.4991 27.5386C30.1705 27.5427 29.8443 27.481 29.5399 27.3571C29.2354 27.2333 28.9588 27.0497 28.7264 26.8174C28.4939 26.585 28.3103 26.3085 28.1863 26.0041C28.0623 25.6997 28.0005 25.3735 28.0045 25.0449Z" fill="#72A0DB"/>
</svg>
