<svg width="52" height="42" viewBox="0 0 52 42" fill="none" xmlns="http://www.w3.org/2000/svg">
<path d="M38.5377 0.637748C39.0551 0.268597 39.6937 0.110373 40.3236 0.195253C40.9535 0.280133 41.5274 0.601743 41.9286 1.09468C42.3298 1.58762 42.5283 2.21487 42.4835 2.84888C42.4388 3.48289 42.1542 4.07606 41.6877 4.50775L41.4427 4.70525L36.1902 8.45775C35.4355 8.99476 34.8484 9.7347 34.4971 10.5918C34.1457 11.4489 34.0445 12.388 34.2052 13.3002L34.2852 13.6802L42.6427 5.32275C43.0926 4.87438 43.6963 4.61406 44.3312 4.59468C44.966 4.57529 45.5845 4.79829 46.0609 5.21837C46.5373 5.63845 46.836 6.22413 46.8962 6.85643C46.9564 7.48874 46.7737 8.12027 46.3852 8.62275L46.1777 8.85775L37.8202 17.2152C39.5827 17.6652 41.5327 17.1152 42.7852 15.6402L43.0427 15.3102L46.7952 10.0577C47.1654 9.54237 47.7177 9.18705 48.3402 9.06381C48.9626 8.94058 49.6087 9.05866 50.1473 9.39411C50.6859 9.72956 51.0769 10.2573 51.2408 10.8703C51.4048 11.4833 51.3295 12.1357 51.0302 12.6952L50.8627 12.9627L47.1127 18.2177C45.7241 20.159 43.6825 21.5349 41.3619 22.0932C39.0414 22.6516 36.5973 22.3549 34.4777 21.2577L34.0277 21.0077L28.2852 26.7477L38.6777 37.1427C39.1081 37.5732 39.3667 38.146 39.4049 38.7535C39.4431 39.3611 39.2583 39.9617 38.8852 40.4427L38.6777 40.6777C38.2472 41.1082 37.6745 41.3668 37.0669 41.405C36.4593 41.4432 35.8587 41.2584 35.3777 40.8852L35.1427 40.6777L24.7502 30.2827L14.3577 40.6777C13.9272 41.1082 13.3545 41.3668 12.7469 41.405C12.1393 41.4432 11.5387 41.2584 11.0577 40.8852L10.8227 40.6777C10.3923 40.2473 10.1337 39.6745 10.0955 39.067C10.0573 38.4594 10.2421 37.8588 10.6152 37.3777L10.8227 37.1427L21.2152 26.7477L17.1902 22.7227C16.1316 23.2956 14.9879 23.6948 13.8027 23.9052L13.1777 23.9977C11.682 24.1867 10.1628 24.0254 8.7401 23.5264C7.31743 23.0275 6.03025 22.2046 4.98021 21.1227C2.65771 18.7977 1.33021 15.8752 1.00021 13.0677C0.675208 10.3052 1.30021 7.34525 3.32521 5.32275C5.34771 3.29775 8.30521 2.67275 11.0677 2.99775C13.8752 3.33025 16.8002 4.65775 19.1227 6.98025C20.2042 8.03002 21.0269 9.31679 21.5258 10.739C22.0247 12.1612 22.1863 13.6799 21.9977 15.1752C21.8477 16.4377 21.4802 17.6352 20.9827 18.6777L20.7227 19.1877L24.7477 23.2127L30.4927 17.4727C29.2898 15.417 28.8663 12.9971 29.2996 10.655C29.7329 8.31288 30.994 6.20468 32.8527 4.71525L33.2827 4.39025L38.5377 0.637748Z" fill="#72A0DB"/>
</svg>
