<svg width="14" height="12" viewBox="0 0 14 12" fill="none" xmlns="http://www.w3.org/2000/svg">
<mask id="mask0_2340_1397" style="mask-type:luminance" maskUnits="userSpaceOnUse" x="0" y="0" width="14" height="12">
<path fill-rule="evenodd" clip-rule="evenodd" d="M0.208008 0.666992H13.5413V12.0003H0.208008V0.666992Z" fill="white"/>
</mask>
<g mask="url(#mask0_2340_1397)">
<path fill-rule="evenodd" clip-rule="evenodd" d="M10.772 9.60633C10.8208 9.60734 10.8694 9.59841 10.9146 9.58007C10.9599 9.56173 11.001 9.53438 11.0353 9.49966C11.0704 9.46554 11.0979 9.42452 11.1163 9.37919C11.1347 9.33386 11.1434 9.28521 11.142 9.23633V7.53366C11.1427 7.48614 11.1333 7.43901 11.1143 7.39543C11.0954 7.35185 11.0673 7.31283 11.032 7.28099C10.9637 7.21313 10.8713 7.17504 10.775 7.17504C10.6787 7.17504 10.5863 7.21313 10.518 7.28099C10.4844 7.31373 10.4578 7.35295 10.4398 7.39626C10.4218 7.43958 10.4128 7.48609 10.4133 7.53299V8.87166H9.44134C9.39326 8.87093 9.34555 8.88022 9.30124 8.89893C9.25694 8.91763 9.21702 8.94536 9.18401 8.98033C9.14965 9.01328 9.12245 9.05296 9.10409 9.09689C9.08574 9.14082 9.07664 9.18806 9.07734 9.23566C9.07734 9.33744 9.1129 9.42455 9.18401 9.49699C9.21702 9.53197 9.25694 9.55969 9.30124 9.57839C9.34555 9.5971 9.39326 9.60639 9.44134 9.60566L10.772 9.60633ZM8.06334 5.19233C8.02645 5.15722 8.00801 5.09055 8.00801 4.99233V4.66366C8.00801 4.56588 8.02645 4.49833 8.06334 4.46099C8.09979 4.4241 8.16623 4.40544 8.26267 4.40499H8.58001C8.68001 4.40588 8.74956 4.42455 8.78868 4.46099C8.8269 4.49833 8.84601 4.56588 8.84601 4.66366V4.99299C8.84601 5.09033 8.82667 5.15655 8.78801 5.19166C8.74979 5.22722 8.68067 5.24499 8.58068 5.24499H8.26267C8.16579 5.24499 8.09912 5.22722 8.06267 5.19166M9.66401 11.777C8.98881 11.4783 8.45253 10.9339 8.16401 10.2543C8.01615 9.90612 7.94127 9.53129 7.94401 9.15299C7.94401 8.76188 8.01734 8.39522 8.16401 8.05299C8.30979 7.71077 8.51201 7.40922 8.77067 7.14833C9.02845 6.88833 9.32623 6.68299 9.66401 6.53233C10.005 6.38026 10.3747 6.30341 10.748 6.30699C11.1298 6.30699 11.4902 6.38144 11.8293 6.53033C12.1644 6.67544 12.4679 6.8847 12.7227 7.14633C12.9787 7.4081 13.1789 7.71033 13.3233 8.05299C13.4695 8.40142 13.5437 8.77582 13.5413 9.15366C13.5413 9.54077 13.468 9.90566 13.3213 10.2483C13.0331 10.9291 12.4969 11.4748 11.8213 11.775C11.4837 11.9256 11.1177 12.0024 10.748 12.0003C10.3627 12.0003 10.0016 11.9261 9.66467 11.7777M6.25934 8.79299C6.22201 8.7561 6.20334 8.68877 6.20334 8.59099V8.26166C6.20334 8.16388 6.22179 8.09766 6.25867 8.06299C6.29556 8.02744 6.36223 8.00966 6.45867 8.00966H6.78267C6.88268 8.00966 6.9509 8.02744 6.98734 8.06299C7.02379 8.0981 7.04201 8.16433 7.04201 8.26166V8.59099C7.04201 8.68877 7.02379 8.7561 6.98734 8.79299C6.95045 8.82988 6.88201 8.84855 6.78201 8.84899H6.45801C6.36245 8.84899 6.29667 8.83033 6.25934 8.79299ZM6.25867 6.99099C6.22134 6.9541 6.20267 6.88633 6.20267 6.78766V6.46699C6.20267 6.36922 6.22112 6.30255 6.25801 6.26699C6.2949 6.23144 6.36156 6.21366 6.45801 6.21366H6.78201C6.88201 6.21366 6.95023 6.23144 6.98667 6.26699C7.02312 6.30255 7.04134 6.36922 7.04134 6.46699V6.78833C7.04134 6.88699 7.02312 6.95499 6.98667 6.99233C6.94979 7.02922 6.88134 7.04744 6.78134 7.04699H6.45734C6.36179 7.04699 6.29534 7.02855 6.25801 6.99166M6.25801 5.19233C6.22067 5.15722 6.20201 5.09077 6.20201 4.99299V4.66433C6.20201 4.56655 6.22045 4.49899 6.25734 4.46166C6.29423 4.42433 6.3609 4.40566 6.45734 4.40566H6.78134C6.88134 4.40655 6.94956 4.42522 6.98601 4.46166C7.02245 4.49899 7.04067 4.56655 7.04067 4.66433V4.99366C7.04067 5.09099 7.02245 5.15722 6.98601 5.19233C6.94912 5.22788 6.88067 5.24566 6.78067 5.24566H6.45667C6.36112 5.24566 6.29534 5.22788 6.25801 5.19233ZM4.46001 8.79366C4.42312 8.75677 4.40467 8.68944 4.40467 8.59166V8.26233C4.40467 8.16455 4.42312 8.09833 4.46001 8.06366C4.49601 8.0281 4.56267 8.01033 4.66001 8.01033H4.98267C5.07912 8.01033 5.14667 8.0281 5.18534 8.06366C5.22401 8.09877 5.24334 8.16499 5.24334 8.26233V8.59166C5.24334 8.68944 5.22401 8.75677 5.18534 8.79366C5.14667 8.83055 5.07912 8.84922 4.98267 8.84966H4.65934C4.56245 8.84966 4.49601 8.83099 4.46001 8.79366ZM4.46001 6.99166C4.42312 6.95477 4.40467 6.88699 4.40467 6.78833V6.46699C4.40467 6.36922 4.42312 6.30255 4.46001 6.26699C4.49601 6.23144 4.56267 6.21366 4.66001 6.21366H4.98267C5.07912 6.21366 5.14667 6.23144 5.18534 6.26699C5.22401 6.30255 5.24334 6.36922 5.24334 6.46699V6.78833C5.24334 6.88699 5.22401 6.95499 5.18534 6.99233C5.14667 7.02966 5.07912 7.04788 4.98267 7.04699H4.65934C4.56245 7.04699 4.49601 7.02855 4.46001 6.99166ZM4.46001 5.19233C4.42312 5.15722 4.40467 5.09077 4.40467 4.99299V4.66433C4.40467 4.56655 4.42312 4.49899 4.46001 4.46166C4.49601 4.42477 4.56267 4.4061 4.66001 4.40566H4.98267C5.07912 4.40655 5.14667 4.42522 5.18534 4.46166C5.22401 4.49899 5.24334 4.56655 5.24334 4.66433V4.99366C5.24334 5.09099 5.22401 5.15722 5.18534 5.19233C5.14667 5.22788 5.07912 5.24566 4.98267 5.24566H4.65934C4.56245 5.24566 4.49601 5.22788 4.46001 5.19233ZM2.66201 8.79366C2.62556 8.75677 2.60734 8.68944 2.60734 8.59166V8.26233C2.60734 8.16455 2.62556 8.09833 2.66201 8.06366C2.69845 8.0281 2.76512 8.01033 2.86201 8.01033H3.17934C3.27623 8.01033 3.34467 8.0281 3.38467 8.06366C3.42512 8.09877 3.44534 8.16499 3.44534 8.26233V8.59166C3.44534 8.68944 3.42534 8.75677 3.38534 8.79366C3.34534 8.83055 3.27667 8.84922 3.17934 8.84966H2.86134C2.76534 8.84966 2.6989 8.83099 2.66201 8.79366ZM2.66201 6.99166C2.62556 6.95477 2.60734 6.88699 2.60734 6.78833V6.46699C2.60734 6.36922 2.62556 6.30255 2.66201 6.26699C2.69845 6.23144 2.76512 6.21366 2.86201 6.21366H3.17934C3.27623 6.21366 3.34467 6.23144 3.38467 6.26699C3.42512 6.30255 3.44534 6.36922 3.44534 6.46699V6.78833C3.44534 6.88699 3.42534 6.95499 3.38534 6.99233C3.34534 7.02966 3.27667 7.04788 3.17934 7.04699H2.86134C2.76534 7.04699 2.6989 7.02855 2.66201 6.99166ZM0.208674 2.43366C0.208674 1.84699 0.356675 1.40588 0.652675 1.11033C0.950008 0.814771 1.38956 0.666993 1.97134 0.666993H9.47668C10.058 0.666549 10.4976 0.815438 10.7953 1.11366C11.0922 1.41055 11.2407 1.85055 11.2407 2.43366V5.57366C11.1569 5.56228 11.0729 5.55251 10.9887 5.54433C10.8253 5.52889 10.6608 5.52889 10.4973 5.54433C10.4142 5.55188 10.3302 5.56144 10.2453 5.57299V4.04699C10.2453 3.79677 10.1818 3.60899 10.0547 3.48366C9.92801 3.35922 9.74668 3.29699 9.51068 3.29699H1.93134C1.69579 3.29699 1.51579 3.35922 1.39134 3.48366C1.26556 3.60899 1.20267 3.79677 1.20267 4.04699V9.21299C1.20267 9.46322 1.26534 9.65099 1.39067 9.77633C1.51601 9.90077 1.69623 9.96322 1.93134 9.96366H7.29134C7.32201 10.1397 7.37023 10.3128 7.43601 10.483C7.50223 10.6532 7.58156 10.8148 7.67401 10.9677H1.97067C1.38845 10.9672 0.948897 10.8194 0.652008 10.5243C0.356008 10.2283 0.208008 9.78744 0.208008 9.20166L0.208674 2.43366Z" fill="#999696"/>
</g>
</svg>
