<svg width="14" height="12" viewBox="0 0 14 12" fill="none" xmlns="http://www.w3.org/2000/svg">
<mask id="mask0_2458_579" style="mask-type:luminance" maskUnits="userSpaceOnUse" x="0" y="0" width="14" height="12">
<path fill-rule="evenodd" clip-rule="evenodd" d="M0.333496 0.666992H13.6668V12.0003H0.333496V0.666992Z" fill="white"/>
</mask>
<g mask="url(#mask0_2458_579)">
<path fill-rule="evenodd" clip-rule="evenodd" d="M10.8975 9.60633C10.9463 9.60734 10.9949 9.59841 11.0401 9.58007C11.0854 9.56173 11.1265 9.53438 11.1608 9.49966C11.1959 9.46554 11.2234 9.42452 11.2418 9.37919C11.2602 9.33386 11.2689 9.28521 11.2675 9.23633V7.53366C11.2682 7.48614 11.2588 7.43901 11.2398 7.39543C11.2209 7.35185 11.1928 7.31283 11.1575 7.28099C11.0892 7.21313 10.9968 7.17504 10.9005 7.17504C10.8042 7.17504 10.7118 7.21313 10.6435 7.28099C10.6099 7.31373 10.5833 7.35295 10.5653 7.39626C10.5473 7.43958 10.5383 7.48609 10.5388 7.53299V8.87166H9.56683C9.51875 8.87093 9.47104 8.88022 9.42673 8.89893C9.38243 8.91763 9.34251 8.94536 9.3095 8.98033C9.27514 9.01328 9.24793 9.05296 9.22958 9.09689C9.21123 9.14082 9.20212 9.18806 9.20283 9.23566C9.20283 9.33744 9.23839 9.42455 9.3095 9.49699C9.34251 9.53197 9.38243 9.55969 9.42673 9.57839C9.47104 9.5971 9.51875 9.60639 9.56683 9.60566L10.8975 9.60633ZM8.18883 5.19233C8.15194 5.15722 8.1335 5.09055 8.1335 4.99233V4.66366C8.1335 4.56588 8.15194 4.49833 8.18883 4.46099C8.22527 4.4241 8.29172 4.40544 8.38816 4.40499H8.7055C8.8055 4.40588 8.87505 4.42455 8.91416 4.46099C8.95239 4.49833 8.9715 4.56588 8.9715 4.66366V4.99299C8.9715 5.09033 8.95216 5.15655 8.9135 5.19166C8.87527 5.22722 8.80616 5.24499 8.70616 5.24499H8.38816C8.29127 5.24499 8.22461 5.22722 8.18816 5.19166M9.7895 11.777C9.11429 11.4783 8.57802 10.9339 8.2895 10.2543C8.14164 9.90612 8.06676 9.53129 8.0695 9.15299C8.0695 8.76188 8.14283 8.39522 8.2895 8.05299C8.43527 7.71077 8.6375 7.40922 8.89616 7.14833C9.15394 6.88833 9.45172 6.68299 9.7895 6.53233C10.1305 6.38026 10.5002 6.30341 10.8735 6.30699C11.2553 6.30699 11.6157 6.38144 11.9548 6.53033C12.2899 6.67544 12.5934 6.8847 12.8482 7.14633C13.1042 7.4081 13.3044 7.71033 13.4488 8.05299C13.595 8.40142 13.6692 8.77582 13.6668 9.15366C13.6668 9.54077 13.5935 9.90566 13.4468 10.2483C13.1586 10.9291 12.6224 11.4748 11.9468 11.775C11.6091 11.9256 11.2432 12.0024 10.8735 12.0003C10.4882 12.0003 10.1271 11.9261 9.79016 11.7777M6.38483 8.79299C6.3475 8.7561 6.32883 8.68877 6.32883 8.59099V8.26166C6.32883 8.16388 6.34727 8.09766 6.38416 8.06299C6.42105 8.02744 6.48772 8.00966 6.58416 8.00966H6.90816C7.00816 8.00966 7.07639 8.02744 7.11283 8.06299C7.14927 8.0981 7.1675 8.16433 7.1675 8.26166V8.59099C7.1675 8.68877 7.14927 8.7561 7.11283 8.79299C7.07594 8.82988 7.0075 8.84855 6.9075 8.84899H6.5835C6.48794 8.84899 6.42216 8.83033 6.38483 8.79299ZM6.38416 6.99099C6.34683 6.9541 6.32816 6.88633 6.32816 6.78766V6.46699C6.32816 6.36922 6.34661 6.30255 6.3835 6.26699C6.42038 6.23144 6.48705 6.21366 6.5835 6.21366H6.9075C7.0075 6.21366 7.07572 6.23144 7.11216 6.26699C7.14861 6.30255 7.16683 6.36922 7.16683 6.46699V6.78833C7.16683 6.88699 7.14861 6.95499 7.11216 6.99233C7.07527 7.02922 7.00683 7.04744 6.90683 7.04699H6.58283C6.48727 7.04699 6.42083 7.02855 6.3835 6.99166M6.3835 5.19233C6.34616 5.15722 6.3275 5.09077 6.3275 4.99299V4.66433C6.3275 4.56655 6.34594 4.49899 6.38283 4.46166C6.41972 4.42433 6.48638 4.40566 6.58283 4.40566H6.90683C7.00683 4.40655 7.07505 4.42522 7.1115 4.46166C7.14794 4.49899 7.16616 4.56655 7.16616 4.66433V4.99366C7.16616 5.09099 7.14794 5.15722 7.1115 5.19233C7.07461 5.22788 7.00616 5.24566 6.90616 5.24566H6.58216C6.48661 5.24566 6.42083 5.22788 6.3835 5.19233ZM4.5855 8.79366C4.54861 8.75677 4.53016 8.68944 4.53016 8.59166V8.26233C4.53016 8.16455 4.54861 8.09833 4.5855 8.06366C4.6215 8.0281 4.68816 8.01033 4.7855 8.01033H5.10816C5.20461 8.01033 5.27216 8.0281 5.31083 8.06366C5.3495 8.09877 5.36883 8.16499 5.36883 8.26233V8.59166C5.36883 8.68944 5.3495 8.75677 5.31083 8.79366C5.27216 8.83055 5.20461 8.84922 5.10816 8.84966H4.78483C4.68794 8.84966 4.6215 8.83099 4.5855 8.79366ZM4.5855 6.99166C4.54861 6.95477 4.53016 6.88699 4.53016 6.78833V6.46699C4.53016 6.36922 4.54861 6.30255 4.5855 6.26699C4.6215 6.23144 4.68816 6.21366 4.7855 6.21366H5.10816C5.20461 6.21366 5.27216 6.23144 5.31083 6.26699C5.3495 6.30255 5.36883 6.36922 5.36883 6.46699V6.78833C5.36883 6.88699 5.3495 6.95499 5.31083 6.99233C5.27216 7.02966 5.20461 7.04788 5.10816 7.04699H4.78483C4.68794 7.04699 4.6215 7.02855 4.5855 6.99166ZM4.5855 5.19233C4.54861 5.15722 4.53016 5.09077 4.53016 4.99299V4.66433C4.53016 4.56655 4.54861 4.49899 4.5855 4.46166C4.6215 4.42477 4.68816 4.4061 4.7855 4.40566H5.10816C5.20461 4.40655 5.27216 4.42522 5.31083 4.46166C5.3495 4.49899 5.36883 4.56655 5.36883 4.66433V4.99366C5.36883 5.09099 5.3495 5.15722 5.31083 5.19233C5.27216 5.22788 5.20461 5.24566 5.10816 5.24566H4.78483C4.68794 5.24566 4.6215 5.22788 4.5855 5.19233ZM2.7875 8.79366C2.75105 8.75677 2.73283 8.68944 2.73283 8.59166V8.26233C2.73283 8.16455 2.75105 8.09833 2.7875 8.06366C2.82394 8.0281 2.89061 8.01033 2.9875 8.01033H3.30483C3.40172 8.01033 3.47016 8.0281 3.51016 8.06366C3.55061 8.09877 3.57083 8.16499 3.57083 8.26233V8.59166C3.57083 8.68944 3.55083 8.75677 3.51083 8.79366C3.47083 8.83055 3.40216 8.84922 3.30483 8.84966H2.98683C2.89083 8.84966 2.82439 8.83099 2.7875 8.79366ZM2.7875 6.99166C2.75105 6.95477 2.73283 6.88699 2.73283 6.78833V6.46699C2.73283 6.36922 2.75105 6.30255 2.7875 6.26699C2.82394 6.23144 2.89061 6.21366 2.9875 6.21366H3.30483C3.40172 6.21366 3.47016 6.23144 3.51016 6.26699C3.55061 6.30255 3.57083 6.36922 3.57083 6.46699V6.78833C3.57083 6.88699 3.55083 6.95499 3.51083 6.99233C3.47083 7.02966 3.40216 7.04788 3.30483 7.04699H2.98683C2.89083 7.04699 2.82439 7.02855 2.7875 6.99166ZM0.334163 2.43366C0.334163 1.84699 0.482163 1.40588 0.778163 1.11033C1.0755 0.814771 1.51505 0.666993 2.09683 0.666993H9.60216C10.1835 0.666549 10.6231 0.815438 10.9208 1.11366C11.2177 1.41055 11.3662 1.85055 11.3662 2.43366V5.57366C11.2824 5.56228 11.1983 5.55251 11.1142 5.54433C10.9507 5.52889 10.7862 5.52889 10.6228 5.54433C10.5397 5.55188 10.4557 5.56144 10.3708 5.57299V4.04699C10.3708 3.79677 10.3073 3.60899 10.1802 3.48366C10.0535 3.35922 9.87216 3.29699 9.63616 3.29699H2.05683C1.82127 3.29699 1.64127 3.35922 1.51683 3.48366C1.39105 3.60899 1.32816 3.79677 1.32816 4.04699V9.21299C1.32816 9.46322 1.39083 9.65099 1.51616 9.77633C1.6415 9.90077 1.82172 9.96322 2.05683 9.96366H7.41683C7.4475 10.1397 7.49572 10.3128 7.5615 10.483C7.62772 10.6532 7.70705 10.8148 7.7995 10.9677H2.09616C1.51394 10.9672 1.07438 10.8194 0.777496 10.5243C0.481496 10.2283 0.333496 9.78744 0.333496 9.20166L0.334163 2.43366Z" fill="#999696"/>
</g>
</svg>
