<svg width="14" height="12" viewBox="0 0 14 12" fill="none" xmlns="http://www.w3.org/2000/svg">
<mask id="mask0_2340_1256" style="mask-type:luminance" maskUnits="userSpaceOnUse" x="0" y="0" width="14" height="12">
<path fill-rule="evenodd" clip-rule="evenodd" d="M0.208496 0.666992H13.5418V12.0003H0.208496V0.666992Z" fill="white"/>
</mask>
<g mask="url(#mask0_2340_1256)">
<path fill-rule="evenodd" clip-rule="evenodd" d="M10.7725 9.60633C10.8213 9.60734 10.8699 9.59841 10.9151 9.58007C10.9604 9.56173 11.0015 9.53438 11.0358 9.49966C11.0709 9.46554 11.0984 9.42452 11.1168 9.37919C11.1352 9.33386 11.1439 9.28521 11.1425 9.23633V7.53366C11.1432 7.48614 11.1338 7.43901 11.1148 7.39543C11.0959 7.35185 11.0678 7.31283 11.0325 7.28099C10.9642 7.21313 10.8718 7.17504 10.7755 7.17504C10.6792 7.17504 10.5868 7.21313 10.5185 7.28099C10.4849 7.31373 10.4583 7.35295 10.4403 7.39626C10.4223 7.43958 10.4133 7.48609 10.4138 7.53299V8.87166H9.44183C9.39375 8.87093 9.34604 8.88022 9.30173 8.89893C9.25743 8.91763 9.21751 8.94536 9.1845 8.98033C9.15014 9.01328 9.12293 9.05296 9.10458 9.09689C9.08623 9.14082 9.07712 9.18806 9.07783 9.23566C9.07783 9.33744 9.11339 9.42455 9.1845 9.49699C9.21751 9.53197 9.25743 9.55969 9.30173 9.57839C9.34604 9.5971 9.39375 9.60639 9.44183 9.60566L10.7725 9.60633ZM8.06383 5.19233C8.02694 5.15722 8.0085 5.09055 8.0085 4.99233V4.66366C8.0085 4.56588 8.02694 4.49833 8.06383 4.46099C8.10027 4.4241 8.16672 4.40544 8.26316 4.40499H8.5805C8.6805 4.40588 8.75005 4.42455 8.78916 4.46099C8.82739 4.49833 8.8465 4.56588 8.8465 4.66366V4.99299C8.8465 5.09033 8.82716 5.15655 8.7885 5.19166C8.75027 5.22722 8.68116 5.24499 8.58116 5.24499H8.26316C8.16627 5.24499 8.09961 5.22722 8.06316 5.19166M9.6645 11.777C8.98929 11.4783 8.45302 10.9339 8.1645 10.2543C8.01664 9.90612 7.94176 9.53129 7.9445 9.15299C7.9445 8.76188 8.01783 8.39522 8.1645 8.05299C8.31027 7.71077 8.5125 7.40922 8.77116 7.14833C9.02894 6.88833 9.32672 6.68299 9.6645 6.53233C10.0055 6.38026 10.3752 6.30341 10.7485 6.30699C11.1303 6.30699 11.4907 6.38144 11.8298 6.53033C12.1649 6.67544 12.4684 6.8847 12.7232 7.14633C12.9792 7.4081 13.1794 7.71033 13.3238 8.05299C13.47 8.40142 13.5442 8.77582 13.5418 9.15366C13.5418 9.54077 13.4685 9.90566 13.3218 10.2483C13.0336 10.9291 12.4974 11.4748 11.8218 11.775C11.4841 11.9256 11.1182 12.0024 10.7485 12.0003C10.3632 12.0003 10.0021 11.9261 9.66516 11.7777M6.25983 8.79299C6.2225 8.7561 6.20383 8.68877 6.20383 8.59099V8.26166C6.20383 8.16388 6.22227 8.09766 6.25916 8.06299C6.29605 8.02744 6.36272 8.00966 6.45916 8.00966H6.78316C6.88316 8.00966 6.95139 8.02744 6.98783 8.06299C7.02427 8.0981 7.0425 8.16433 7.0425 8.26166V8.59099C7.0425 8.68877 7.02427 8.7561 6.98783 8.79299C6.95094 8.82988 6.8825 8.84855 6.7825 8.84899H6.4585C6.36294 8.84899 6.29716 8.83033 6.25983 8.79299ZM6.25916 6.99099C6.22183 6.9541 6.20316 6.88633 6.20316 6.78766V6.46699C6.20316 6.36922 6.22161 6.30255 6.2585 6.26699C6.29538 6.23144 6.36205 6.21366 6.4585 6.21366H6.7825C6.8825 6.21366 6.95072 6.23144 6.98716 6.26699C7.02361 6.30255 7.04183 6.36922 7.04183 6.46699V6.78833C7.04183 6.88699 7.02361 6.95499 6.98716 6.99233C6.95027 7.02922 6.88183 7.04744 6.78183 7.04699H6.45783C6.36227 7.04699 6.29583 7.02855 6.2585 6.99166M6.2585 5.19233C6.22116 5.15722 6.2025 5.09077 6.2025 4.99299V4.66433C6.2025 4.56655 6.22094 4.49899 6.25783 4.46166C6.29472 4.42433 6.36138 4.40566 6.45783 4.40566H6.78183C6.88183 4.40655 6.95005 4.42522 6.9865 4.46166C7.02294 4.49899 7.04116 4.56655 7.04116 4.66433V4.99366C7.04116 5.09099 7.02294 5.15722 6.9865 5.19233C6.94961 5.22788 6.88116 5.24566 6.78116 5.24566H6.45716C6.36161 5.24566 6.29583 5.22788 6.2585 5.19233ZM4.4605 8.79366C4.42361 8.75677 4.40516 8.68944 4.40516 8.59166V8.26233C4.40516 8.16455 4.42361 8.09833 4.4605 8.06366C4.4965 8.0281 4.56316 8.01033 4.6605 8.01033H4.98316C5.07961 8.01033 5.14716 8.0281 5.18583 8.06366C5.2245 8.09877 5.24383 8.16499 5.24383 8.26233V8.59166C5.24383 8.68944 5.2245 8.75677 5.18583 8.79366C5.14716 8.83055 5.07961 8.84922 4.98316 8.84966H4.65983C4.56294 8.84966 4.4965 8.83099 4.4605 8.79366ZM4.4605 6.99166C4.42361 6.95477 4.40516 6.88699 4.40516 6.78833V6.46699C4.40516 6.36922 4.42361 6.30255 4.4605 6.26699C4.4965 6.23144 4.56316 6.21366 4.6605 6.21366H4.98316C5.07961 6.21366 5.14716 6.23144 5.18583 6.26699C5.2245 6.30255 5.24383 6.36922 5.24383 6.46699V6.78833C5.24383 6.88699 5.2245 6.95499 5.18583 6.99233C5.14716 7.02966 5.07961 7.04788 4.98316 7.04699H4.65983C4.56294 7.04699 4.4965 7.02855 4.4605 6.99166ZM4.4605 5.19233C4.42361 5.15722 4.40516 5.09077 4.40516 4.99299V4.66433C4.40516 4.56655 4.42361 4.49899 4.4605 4.46166C4.4965 4.42477 4.56316 4.4061 4.6605 4.40566H4.98316C5.07961 4.40655 5.14716 4.42522 5.18583 4.46166C5.2245 4.49899 5.24383 4.56655 5.24383 4.66433V4.99366C5.24383 5.09099 5.2245 5.15722 5.18583 5.19233C5.14716 5.22788 5.07961 5.24566 4.98316 5.24566H4.65983C4.56294 5.24566 4.4965 5.22788 4.4605 5.19233ZM2.6625 8.79366C2.62605 8.75677 2.60783 8.68944 2.60783 8.59166V8.26233C2.60783 8.16455 2.62605 8.09833 2.6625 8.06366C2.69894 8.0281 2.76561 8.01033 2.8625 8.01033H3.17983C3.27672 8.01033 3.34516 8.0281 3.38516 8.06366C3.42561 8.09877 3.44583 8.16499 3.44583 8.26233V8.59166C3.44583 8.68944 3.42583 8.75677 3.38583 8.79366C3.34583 8.83055 3.27716 8.84922 3.17983 8.84966H2.86183C2.76583 8.84966 2.69939 8.83099 2.6625 8.79366ZM2.6625 6.99166C2.62605 6.95477 2.60783 6.88699 2.60783 6.78833V6.46699C2.60783 6.36922 2.62605 6.30255 2.6625 6.26699C2.69894 6.23144 2.76561 6.21366 2.8625 6.21366H3.17983C3.27672 6.21366 3.34516 6.23144 3.38516 6.26699C3.42561 6.30255 3.44583 6.36922 3.44583 6.46699V6.78833C3.44583 6.88699 3.42583 6.95499 3.38583 6.99233C3.34583 7.02966 3.27716 7.04788 3.17983 7.04699H2.86183C2.76583 7.04699 2.69939 7.02855 2.6625 6.99166ZM0.209163 2.43366C0.209163 1.84699 0.357163 1.40588 0.653163 1.11033C0.950496 0.814771 1.39005 0.666993 1.97183 0.666993H9.47716C10.0585 0.666549 10.4981 0.815438 10.7958 1.11366C11.0927 1.41055 11.2412 1.85055 11.2412 2.43366V5.57366C11.1574 5.56228 11.0733 5.55251 10.9892 5.54433C10.8257 5.52889 10.6612 5.52889 10.4978 5.54433C10.4147 5.55188 10.3307 5.56144 10.2458 5.57299V4.04699C10.2458 3.79677 10.1823 3.60899 10.0552 3.48366C9.9285 3.35922 9.74716 3.29699 9.51116 3.29699H1.93183C1.69627 3.29699 1.51627 3.35922 1.39183 3.48366C1.26605 3.60899 1.20316 3.79677 1.20316 4.04699V9.21299C1.20316 9.46322 1.26583 9.65099 1.39116 9.77633C1.5165 9.90077 1.69672 9.96322 1.93183 9.96366H7.29183C7.3225 10.1397 7.37072 10.3128 7.4365 10.483C7.50272 10.6532 7.58205 10.8148 7.6745 10.9677H1.97116C1.38894 10.9672 0.949385 10.8194 0.652496 10.5243C0.356496 10.2283 0.208496 9.78744 0.208496 9.20166L0.209163 2.43366Z" fill="#999696"/>
</g>
</svg>
