<svg width="60" height="60" viewBox="0 0 60 60" fill="none" xmlns="http://www.w3.org/2000/svg">
<path d="M24.9574 50.12L19.7324 40.255L9.81738 34.98L12.5249 32.2875L21.1549 33.755L28.7799 26.13L10.0249 18.125L13.4949 14.675L36.3074 18.5875L44.1074 10.74C44.8074 10.0383 45.6657 9.6875 46.6824 9.6875C47.6991 9.6875 48.5574 10.0383 49.2574 10.74C49.9607 11.4417 50.3124 12.2983 50.3124 13.31C50.3124 14.3217 49.9616 15.1783 49.2599 15.88L41.3974 23.6925L45.3124 46.4925L41.8274 49.9775L33.8549 31.2225L26.2299 38.8475L27.6624 47.415L24.9574 50.12Z" fill="#72A0DB"/>
</svg>
