<svg width="101" height="20" viewBox="0 0 101 20" fill="none" xmlns="http://www.w3.org/2000/svg">
<path d="M91.4114 16.9295C87.8005 16.9295 84.9724 13.8039 84.9724 10.0002C84.9724 6.19658 87.8005 3.06853 91.4114 3.06853C95.0224 3.06853 97.848 6.19536 97.848 10.0002C97.848 13.8051 95.0212 16.9295 91.4114 16.9295ZM91.4114 0.244141C86.131 0.244141 81.8468 4.61975 81.8468 10.0002C81.8468 15.3807 86.1322 19.7563 91.4114 19.7563C96.6907 19.7563 100.974 15.3807 100.974 10.0002C100.974 4.61975 96.6907 0.244141 91.4114 0.244141ZM70.748 19.5124H73.8456V3.26121H80.4724V0.488043H64.12V3.26121H70.748V19.5124ZM44.67 19.5124H47.7139V5.70634L57.4944 19.5112H60.4578V0.488043H57.4127V14.2929L47.6322 0.488043H44.67V19.5124ZM32.3578 19.7563C37.0456 19.7563 40.2785 16.3868 40.2785 11.6844V0.488043H37.181V11.6039C37.181 14.8649 35.2139 16.9295 32.3578 16.9295C29.5017 16.9295 27.537 14.8649 27.537 11.6039V0.488043H24.437V11.6844C24.437 16.3868 27.67 19.7563 32.3566 19.7563M0.973633 19.5124H3.9651V5.67951L9.21632 13.5332H12.1273L17.0566 5.70634V19.5112H20.048V0.488043H16.9492L10.6688 10.4088L4.12729 0.488043H0.973633V19.5124Z" fill="#383535"/>
</svg>
