<svg width="25" height="24" viewBox="0 0 25 24" fill="none" xmlns="http://www.w3.org/2000/svg">
<path d="M17.3639 5C19.6859 5 21.5039 6.632 21.5039 8.717C21.5039 11.66 18.0899 14.483 12.8859 18.792C12.8859 18.792 12.6679 19 12.5079 19C12.3489 19 12.1119 18.772 12.1119 18.772C6.92791 14.492 3.50391 11.665 3.50391 8.717C3.50391 6.632 5.32391 5 7.64391 5C8.97391 5 10.2859 5.553 11.1519 6.481C11.4939 6.846 11.9859 7.055 12.5029 7.055C13.0219 7.055 13.5139 6.846 13.8559 6.481C14.7239 5.553 16.0359 5 17.3639 5Z" stroke="#B9B6B6" stroke-width="2"/>
</svg>
