<svg width="25" height="24" viewBox="0 0 25 24" fill="none" xmlns="http://www.w3.org/2000/svg">
<path d="M14.0079 17.991H10.9999C10.0156 17.9911 9.04084 17.7974 8.13139 17.4208C7.22194 17.0442 6.39558 16.4921 5.69949 15.7961C5.00341 15.1001 4.45125 14.2738 4.07452 13.3644C3.6978 12.455 3.50391 11.4803 3.50391 10.496C3.50391 8.50794 4.29366 6.6013 5.69943 5.19553C7.10521 3.78975 9.01184 3 10.9999 3H14.0079C15.996 3 17.9026 3.78975 19.3084 5.19553C20.7142 6.6013 21.5039 8.50794 21.5039 10.496C21.5078 11.4907 21.3138 12.4762 20.9332 13.3952C20.5526 14.3142 19.993 15.1483 19.2869 15.849C18.8479 16.278 20.1119 19.062 19.5769 19.383C19.0409 19.704 16.6209 17.584 15.9569 17.766C15.3191 17.9217 14.6644 17.9973 14.0079 17.991Z" stroke="#B9B6B6" stroke-width="1.5" stroke-linecap="round" stroke-linejoin="round"/>
<path d="M8.50391 12C9.05619 12 9.50391 11.5523 9.50391 11C9.50391 10.4477 9.05619 10 8.50391 10C7.95162 10 7.50391 10.4477 7.50391 11C7.50391 11.5523 7.95162 12 8.50391 12Z" fill="#B9B6B6"/>
<path d="M12.5039 12C13.0562 12 13.5039 11.5523 13.5039 11C13.5039 10.4477 13.0562 10 12.5039 10C11.9516 10 11.5039 10.4477 11.5039 11C11.5039 11.5523 11.9516 12 12.5039 12Z" fill="#B9B6B6"/>
<path d="M16.5039 12C17.0562 12 17.5039 11.5523 17.5039 11C17.5039 10.4477 17.0562 10 16.5039 10C15.9516 10 15.5039 10.4477 15.5039 11C15.5039 11.5523 15.9516 12 16.5039 12Z" fill="#B9B6B6"/>
</svg>
